<svg width="122" height="30" viewBox="0 0 122 30" fill="none" xmlns="http://www.w3.org/2000/svg"><g clip-path="url(#logo_black_svg__a)" fill-rule="evenodd" clip-rule="evenodd"><path d="M17.743 17.748 26.816 30H0V0h14.1c.498 0 .952.02 1.369.058a9.113 9.113 0 0 1 8.368 9.085 9.118 9.118 0 0 1-6.094 8.605Z" fill="#157EFF"/><path d="M17.464 30H0V0l26.63 30h-9.166Z" fill="#157EFF"/><path d="M26.817 30H.002L13.315 9.05 26.818 30Z" fill="#00BDFF"/><path d="M0 17.36V0h7.484l11.182 17.358L0 17.36Z" fill="#1560FA"/><path d="m8.035 17.363 5.28-8.313 5.356 8.313H8.035Z" fill="#00EFE9"/><path d="M26.815 30h-9.962L13.314 9.05 26.816 30Z" fill="#157EFF" fill-opacity=".5"/><path d="M42.535 11.03v3.576h2.097c1.594 0 2.373-.84 2.352-1.814.02-1.008-.8-1.761-2.352-1.761h-2.097Zm2.149-2.678c3.098 0 5.13 1.862 5.13 4.44 0 2.482-1.4 3.978-2.985 4.306l3.278 5.848h-3.25l-3.009-5.478h-1.313v5.478h-2.928V8.352h5.077Zm9.666 8.59h4.501c-.251-1.293-1.038-2.023-2.213-2.023-1.29 0-2.046.771-2.287 2.023Zm7.25.937c0 .313-.02.689-.052.918H54.34c.294 1.46 1.322 2.095 2.612 2.095.882 0 1.836-.355 2.57-.969l1.606 1.751c-1.154 1.053-2.623 1.532-4.333 1.532-3.116 0-5.277-2.105-5.277-5.284 0-3.18 2.098-5.348 5.14-5.348 2.928 0 4.932 2.157 4.942 5.305Zm4.984.011c0 1.595 1.06 2.783 2.612 2.783 1.616 0 2.623-1.24 2.623-2.783s-1.007-2.783-2.623-2.783c-1.553 0-2.612 1.188-2.612 2.783Zm8.047 0c0 3.034-2.12 5.316-4.92 5.316-1.365 0-2.33-.531-2.99-1.313v5.223h-2.729V12.845h2.676v1.115c.66-.824 1.636-1.386 3.032-1.386 2.811 0 4.93 2.282 4.93 5.316Zm11.695.75c0 3.19-2.266 4.566-4.805 4.566-2.55 0-4.816-1.376-4.816-4.565v-5.796h2.738V18.4c0 1.616.892 2.272 2.078 2.272 1.175 0 2.077-.656 2.077-2.272v-5.556h2.728v5.796Zm5.304-.75c0 1.595 1.06 2.783 2.613 2.783 1.616 0 2.623-1.24 2.623-2.783s-1.007-2.783-2.623-2.783c-1.553 0-2.612 1.188-2.612 2.783Zm8.048 0c0 3.034-2.12 5.316-4.921 5.316-1.406 0-2.382-.562-3.043-1.376v1.116H89.04V7.936h2.728v5.962c.66-.793 1.615-1.324 2.98-1.324 2.811 0 4.93 2.282 4.93 5.316Zm2.234 5.056h2.738V7.936h-2.738v15.01Zm5.611 0h2.738V12.844h-2.738v10.102Zm3.105-13.406c0 .98-.766 1.73-1.752 1.73s-1.741-.75-1.741-1.73.755-1.751 1.741-1.751c.986 0 1.752.772 1.752 1.751Zm11.362 4.941-1.972 1.637c-.619-.657-1.28-1.011-2.172-1.011-1.416 0-2.549 1.105-2.549 2.783 0 1.689 1.122 2.783 2.539 2.783.881 0 1.636-.396 2.214-1.021l1.951 1.657c-.955 1.22-2.382 1.897-4.081 1.897-3.242 0-5.414-2.251-5.414-5.316 0-3.054 2.172-5.316 5.414-5.316 1.699 0 3.136.688 4.07 1.907Z" fill="#000"/></g><defs><clipPath id="logo_black_svg__a"><path fill="#fff" d="M0 0h122v30H0z"/></clipPath></defs></svg>