<svg width="20" height="19" viewBox="0 0 20 19" fill="none" xmlns="http://www.w3.org/2000/svg"><path d="M8.12252 1.27019e-09L10.3478 3.81163H13.3241C13.9853 3.81173 14.6401 3.67562 15.251 3.41102C15.8619 3.14642 16.4171 2.75855 16.8847 2.26954L17.6356 1.48391L18.6092 2.50229L17.8025 3.34609C16.8829 4.33664 16.3647 5.66059 16.3562 7.04136V15.1302H14.5203L5.64689 1.27019e-09H3.95007C3.42901 -1.35141e-05 2.91304 0.107829 2.43199 0.317284C1.95094 0.526738 1.51426 0.833688 1.14711 1.22044C0.779964 1.60719 0.489652 2.06609 0.292794 2.57073C0.0959356 3.07538 -0.00357152 3.61578 9.79091e-05 4.16081V19H11.8777L9.65241 15.1592H6.64817C5.99119 15.1598 5.34088 15.2964 4.73458 15.561C4.12827 15.8257 3.57804 16.2132 3.11558 16.7014L2.33664 17.5161L1.36307 16.4977L2.16985 15.6539C2.63735 15.1648 3.00809 14.5841 3.26104 13.9451C3.514 13.3061 3.64416 12.6212 3.64406 11.9295V3.86984H5.47997L14.3255 19H16.0223C17.0773 19 18.0891 18.5616 18.8351 17.7813C19.581 17.001 20 15.9427 20 14.8392V1.27019e-09H8.12252Z" fill="#B3B3B3"/></svg>
